<svg width="561" height="249" viewBox="0 0 561 249" fill="none" xmlns="http://www.w3.org/2000/svg">
<rect width="561" height="249" fill="black"/>
<path d="M74.5 185V66.5H99.5V185H74.5ZM87 53.5C82.75 53.5 79.25 50 79.25 45.75C79.25 41.5 82.75 38 87 38C91.25 38 94.75 41.5 94.75 45.75C94.75 50 91.25 53.5 87 53.5ZM115.5 185V66.5H140.5V185H115.5ZM196.5 185V124.5C196.5 112.5 190.5 108.5 184.5 108.5C178.5 108.5 172.5 112.5 172.5 124.5V185H147.5V66.5H172.5V79.5C176.5 72.5 185.5 65.5 198.5 65.5C218.5 65.5 221.5 80.5 221.5 97.5V185H196.5ZM246.5 185V66.5H271.5V185H246.5ZM259 53.5C254.75 53.5 251.25 50 251.25 45.75C251.25 41.5 254.75 38 259 38C263.25 38 266.75 41.5 266.75 45.75C266.75 50 263.25 53.5 259 53.5ZM299.5 185V66.5H324.5V185H299.5ZM384.5 185V124.5C384.5 112.5 378.5 108.5 372.5 108.5C366.5 108.5 360.5 112.5 360.5 124.5V185H335.5V66.5H360.5V79.5C364.5 72.5 373.5 65.5 386.5 65.5C406.5 65.5 409.5 80.5 409.5 97.5V185H384.5ZM459.5 185V66.5H484.5V185H459.5ZM472 53.5C467.75 53.5 464.25 50 464.25 45.75C464.25 41.5 467.75 38 472 38C476.25 38 479.75 41.5 479.75 45.75C479.75 50 476.25 53.5 472 53.5ZM511.5 185V66.5H536.5V185H511.5Z" fill="white"/>
</svg>
